<?xml version="1.0" encoding="UTF-8" standalone="no"?><svg xmlns="http://www.w3.org/2000/svg" xmlns:xlink="http://www.w3.org/1999/xlink" contentStyleType="text/css" height="361px" preserveAspectRatio="none" style="width:566px;height:361px;background:#FFFFFF;" version="1.1" viewBox="0 0 566 361" width="566px" zoomAndPan="magnify"><defs/><g><!--MD5=[3e435d042affccde68262619adda5b81]
class admin--><g id="elem_admin"><rect codeLine="1" fill="#F1F1F1" height="219.6113" id="admin" rx="2.5" ry="2.5" style="stroke:#181818;stroke-width:0.5;" width="287" x="7" y="7"/><ellipse cx="124.75" cy="23" fill="#ADD1B2" rx="11" ry="11" style="stroke:#181818;stroke-width:1.0;"/><path d="M124.2188,29.9219 Q122.4688,29.9219 121.3281,29.1875 Q120.2031,28.4375 119.6406,27.0938 Q119.0938,25.7344 119.0938,23.9375 Q119.0938,21.9063 119.75,20.4531 Q120.4063,19 121.6875,18.2188 Q122.9688,17.4375 124.8438,17.4375 Q125.7344,17.4375 126.4063,17.625 Q127.0781,17.7969 127.7656,18.1406 L126.9531,20.1563 Q126.3281,19.8438 125.7813,19.7188 Q125.25,19.5938 124.7656,19.5938 Q123.5938,19.5938 122.8906,20.125 Q122.1875,20.6563 121.8906,21.6094 Q121.5938,22.5625 121.5938,23.8281 Q121.5938,25.8438 122.3125,26.8125 Q123.0313,27.7656 124.625,27.7656 Q125.2188,27.7656 125.8438,27.6094 Q126.4688,27.4531 127.2969,27.0781 L127.2969,29.2969 Q126.5625,29.6094 125.7656,29.7656 Q124.9844,29.9219 124.2188,29.9219 Z " fill="#000000"/><text fill="#000000" font-family="sans-serif" font-size="14" lengthAdjust="spacing" textLength="43" x="145.25" y="28.432">admin</text><line style="stroke:#181818;stroke-width:0.5;" x1="8" x2="293" y1="39" y2="39"/><text fill="#000000" font-family="sans-serif" font-size="14" lengthAdjust="spacing" textLength="220" x="13" y="57.9659">admins: Map&lt;Addr, Timestamp&gt;</text><text fill="#000000" font-family="sans-serif" font-size="14" lengthAdjust="spacing" textLength="177" x="13" y="77.0339">votings: Map&lt;Addr, Addr&gt;</text><line style="stroke:#181818;stroke-width:0.5;" x1="8" x2="293" y1="85.1358" y2="85.1358"/><text fill="#000000" font-family="sans-serif" font-size="14" lengthAdjust="spacing" textLength="220" x="13" y="104.1018">propose_admin(candidate: Addr)</text><text fill="#000000" font-family="sans-serif" font-size="14" lengthAdjust="spacing" textLength="191" x="13" y="123.1697">add_admin(candidate: Addr)</text><text fill="#000000" font-family="sans-serif" font-size="14" lengthAdjust="spacing" textLength="55" x="13" y="142.2376">donate()</text><text fill="#000000" font-family="sans-serif" font-size="14" lengthAdjust="spacing" textLength="275" x="13" y="161.3055">execute(contract: Addr, message: Binary)</text><text fill="#000000" font-family="sans-serif" font-size="14" lengthAdjust="spacing" textLength="4" x="13" y="180.3734"> </text><text fill="#000000" font-family="sans-serif" font-size="14" lengthAdjust="spacing" textLength="177" x="13" y="199.4414">admins_list() -&gt; Vec&lt;Addr&gt;</text><text fill="#000000" font-family="sans-serif" font-size="14" lengthAdjust="spacing" textLength="165" x="13" y="218.5093">join_time() -&gt; Timestamp</text></g><!--MD5=[99230566cc809b8442ccf0771efd63e4]
class voting--><g id="elem_voting"><rect codeLine="14" fill="#F1F1F1" height="143.3396" id="voting" rx="2.5" ry="2.5" style="stroke:#181818;stroke-width:0.5;" width="174" x="385.5" y="45.5"/><ellipse cx="447.25" cy="61.5" fill="#ADD1B2" rx="11" ry="11" style="stroke:#181818;stroke-width:1.0;"/><path d="M446.7188,68.4219 Q444.9688,68.4219 443.8281,67.6875 Q442.7031,66.9375 442.1406,65.5938 Q441.5938,64.2344 441.5938,62.4375 Q441.5938,60.4063 442.25,58.9531 Q442.9063,57.5 444.1875,56.7188 Q445.4688,55.9375 447.3438,55.9375 Q448.2344,55.9375 448.9063,56.125 Q449.5781,56.2969 450.2656,56.6406 L449.4531,58.6563 Q448.8281,58.3438 448.2813,58.2188 Q447.75,58.0938 447.2656,58.0938 Q446.0938,58.0938 445.3906,58.625 Q444.6875,59.1563 444.3906,60.1094 Q444.0938,61.0625 444.0938,62.3281 Q444.0938,64.3438 444.8125,65.3125 Q445.5313,66.2656 447.125,66.2656 Q447.7188,66.2656 448.3438,66.1094 Q448.9688,65.9531 449.7969,65.5781 L449.7969,67.7969 Q449.0625,68.1094 448.2656,68.2656 Q447.4844,68.4219 446.7188,68.4219 Z " fill="#000000"/><text fill="#000000" font-family="sans-serif" font-size="14" lengthAdjust="spacing" textLength="42" x="467.75" y="66.932">voting</text><line style="stroke:#181818;stroke-width:0.5;" x1="386.5" x2="558.5" y1="77.5" y2="77.5"/><text fill="#000000" font-family="sans-serif" font-size="14" lengthAdjust="spacing" textLength="115" x="391.5" y="96.4659">votes: Vec&lt;Addr&gt;</text><text fill="#000000" font-family="sans-serif" font-size="14" lengthAdjust="spacing" textLength="125" x="391.5" y="115.5339">votes_needed: u64</text><text fill="#000000" font-family="sans-serif" font-size="14" lengthAdjust="spacing" textLength="80" x="391.5" y="134.6018">closed: bool</text><line style="stroke:#181818;stroke-width:0.5;" x1="386.5" x2="558.5" y1="142.7038" y2="142.7038"/><text fill="#000000" font-family="sans-serif" font-size="14" lengthAdjust="spacing" textLength="52" x="391.5" y="161.6697">accept()</text><text fill="#000000" font-family="sans-serif" font-size="14" lengthAdjust="spacing" textLength="162" x="391.5" y="180.7376">votes_list() -&gt; Vec&lt;Addr&gt;</text></g><!--MD5=[ca80c701bb18ff8c00a56e94de87022b]
class external--><g id="elem_external"><rect codeLine="23" fill="#F1F1F1" height="48" id="external" rx="2.5" ry="2.5" style="stroke:#181818;stroke-width:0.5;" width="87" x="107" y="306"/><ellipse cx="122" cy="322" fill="#ADD1B2" rx="11" ry="11" style="stroke:#181818;stroke-width:1.0;"/><path d="M121.4688,328.9219 Q119.7188,328.9219 118.5781,328.1875 Q117.4531,327.4375 116.8906,326.0938 Q116.3438,324.7344 116.3438,322.9375 Q116.3438,320.9063 117,319.4531 Q117.6563,318 118.9375,317.2188 Q120.2188,316.4375 122.0938,316.4375 Q122.9844,316.4375 123.6563,316.625 Q124.3281,316.7969 125.0156,317.1406 L124.2031,319.1563 Q123.5781,318.8438 123.0313,318.7188 Q122.5,318.5938 122.0156,318.5938 Q120.8438,318.5938 120.1406,319.125 Q119.4375,319.6563 119.1406,320.6094 Q118.8438,321.5625 118.8438,322.8281 Q118.8438,324.8438 119.5625,325.8125 Q120.2813,326.7656 121.875,326.7656 Q122.4688,326.7656 123.0938,326.6094 Q123.7188,326.4531 124.5469,326.0781 L124.5469,328.2969 Q123.8125,328.6094 123.0156,328.7656 Q122.2344,328.9219 121.4688,328.9219 Z " fill="#000000"/><text fill="#000000" font-family="sans-serif" font-size="14" lengthAdjust="spacing" textLength="55" x="136" y="327.432">external</text><line style="stroke:#181818;stroke-width:0.5;" x1="108" x2="193" y1="338" y2="338"/><line style="stroke:#181818;stroke-width:0.5;" x1="108" x2="193" y1="346" y2="346"/></g><!--MD5=[85256bba920a9eadca77b04f7814d4b3]
reverse link admin to voting--><g id="link_admin_voting"><path codeLine="25" d="M307.21,117 C334,117 360.95,117 385.09,117 " fill="none" id="admin-backto-voting" style="stroke:#181818;stroke-width:1.0;"/><polygon fill="none" points="294.08,117,300.08,121,306.08,117,300.08,113,294.08,117" style="stroke:#181818;stroke-width:1.0;"/><text fill="#000000" font-family="sans-serif" font-size="13" lengthAdjust="spacing" textLength="55" x="312.25" y="109.897">manages</text></g><!--MD5=[92bca2993d9d43375af1a9d11a6b1ce7]
link admin to external--><g id="link_admin_external"><path codeLine="26" d="M150.5,227.21 C150.5,256.97 150.5,286.34 150.5,305.83 " fill="none" id="admin-external" style="stroke:#181818;stroke-width:1.0;"/><text fill="#000000" font-family="sans-serif" font-size="13" lengthAdjust="spacing" textLength="69" x="151.5" y="271.897">forwards to</text></g></g></svg>