<?xml version="1.0" encoding="UTF-8" standalone="no"?><svg xmlns="http://www.w3.org/2000/svg" xmlns:xlink="http://www.w3.org/1999/xlink" contentStyleType="text/css" height="233px" preserveAspectRatio="none" style="width:512px;height:233px;background:#FFFFFF;" version="1.1" viewBox="0 0 512 233" width="512px" zoomAndPan="magnify"><defs/><g><!--MD5=[3e435d042affccde68262619adda5b81]
class admin--><g id="elem_admin"><rect codeLine="1" fill="#F1F1F1" height="219.6113" id="admin" rx="2.5" ry="2.5" style="stroke:#181818;stroke-width:0.5;" width="232" x="7" y="7"/><ellipse cx="97.25" cy="23" fill="#ADD1B2" rx="11" ry="11" style="stroke:#181818;stroke-width:1.0;"/><path d="M96.7188,29.9219 Q94.9688,29.9219 93.8281,29.1875 Q92.7031,28.4375 92.1406,27.0938 Q91.5938,25.7344 91.5938,23.9375 Q91.5938,21.9063 92.25,20.4531 Q92.9063,19 94.1875,18.2188 Q95.4688,17.4375 97.3438,17.4375 Q98.2344,17.4375 98.9063,17.625 Q99.5781,17.7969 100.2656,18.1406 L99.4531,20.1563 Q98.8281,19.8438 98.2813,19.7188 Q97.75,19.5938 97.2656,19.5938 Q96.0938,19.5938 95.3906,20.125 Q94.6875,20.6563 94.3906,21.6094 Q94.0938,22.5625 94.0938,23.8281 Q94.0938,25.8438 94.8125,26.8125 Q95.5313,27.7656 97.125,27.7656 Q97.7188,27.7656 98.3438,27.6094 Q98.9688,27.4531 99.7969,27.0781 L99.7969,29.2969 Q99.0625,29.6094 98.2656,29.7656 Q97.4844,29.9219 96.7188,29.9219 Z " fill="#000000"/><text fill="#000000" font-family="sans-serif" font-size="14" lengthAdjust="spacing" textLength="43" x="117.75" y="28.432">admin</text><line style="stroke:#181818;stroke-width:0.5;" x1="8" x2="238" y1="39" y2="39"/><text fill="#000000" font-family="sans-serif" font-size="14" lengthAdjust="spacing" textLength="220" x="13" y="57.9659">admins: Map&lt;Addr, Timestamp&gt;</text><text fill="#000000" font-family="sans-serif" font-size="14" lengthAdjust="spacing" textLength="177" x="13" y="77.0339">votings: Map&lt;Addr, Addr&gt;</text><line style="stroke:#181818;stroke-width:0.5;" x1="8" x2="238" y1="85.1358" y2="85.1358"/><text fill="#000000" font-family="sans-serif" font-size="14" lengthAdjust="spacing" textLength="220" x="13" y="104.1018">propose_admin(candidate: Addr)</text><text fill="#000000" font-family="sans-serif" font-size="14" lengthAdjust="spacing" textLength="83" x="13" y="123.1697">add_admin()</text><text fill="#000000" font-family="sans-serif" font-size="14" lengthAdjust="spacing" textLength="43" x="13" y="142.2376">leave()</text><text fill="#000000" font-family="sans-serif" font-size="14" lengthAdjust="spacing" textLength="55" x="13" y="161.3055">donate()</text><text fill="#000000" font-family="sans-serif" font-size="14" lengthAdjust="spacing" textLength="4" x="13" y="180.3734"> </text><text fill="#000000" font-family="sans-serif" font-size="14" lengthAdjust="spacing" textLength="177" x="13" y="199.4414">admins_list() -&gt; Vec&lt;Addr&gt;</text><text fill="#000000" font-family="sans-serif" font-size="14" lengthAdjust="spacing" textLength="165" x="13" y="218.5093">join_time() -&gt; Timestamp</text></g><!--MD5=[99230566cc809b8442ccf0771efd63e4]
class voting--><g id="elem_voting"><rect codeLine="14" fill="#F1F1F1" height="143.3396" id="voting" rx="2.5" ry="2.5" style="stroke:#181818;stroke-width:0.5;" width="174" x="331" y="45.5"/><ellipse cx="392.75" cy="61.5" fill="#ADD1B2" rx="11" ry="11" style="stroke:#181818;stroke-width:1.0;"/><path d="M392.2188,68.4219 Q390.4688,68.4219 389.3281,67.6875 Q388.2031,66.9375 387.6406,65.5938 Q387.0938,64.2344 387.0938,62.4375 Q387.0938,60.4063 387.75,58.9531 Q388.4063,57.5 389.6875,56.7188 Q390.9688,55.9375 392.8438,55.9375 Q393.7344,55.9375 394.4063,56.125 Q395.0781,56.2969 395.7656,56.6406 L394.9531,58.6563 Q394.3281,58.3438 393.7813,58.2188 Q393.25,58.0938 392.7656,58.0938 Q391.5938,58.0938 390.8906,58.625 Q390.1875,59.1563 389.8906,60.1094 Q389.5938,61.0625 389.5938,62.3281 Q389.5938,64.3438 390.3125,65.3125 Q391.0313,66.2656 392.625,66.2656 Q393.2188,66.2656 393.8438,66.1094 Q394.4688,65.9531 395.2969,65.5781 L395.2969,67.7969 Q394.5625,68.1094 393.7656,68.2656 Q392.9844,68.4219 392.2188,68.4219 Z " fill="#000000"/><text fill="#000000" font-family="sans-serif" font-size="14" lengthAdjust="spacing" textLength="42" x="413.25" y="66.932">voting</text><line style="stroke:#181818;stroke-width:0.5;" x1="332" x2="504" y1="77.5" y2="77.5"/><text fill="#000000" font-family="sans-serif" font-size="14" lengthAdjust="spacing" textLength="115" x="337" y="96.4659">votes: Vec&lt;Addr&gt;</text><text fill="#000000" font-family="sans-serif" font-size="14" lengthAdjust="spacing" textLength="125" x="337" y="115.5339">votes_needed: u64</text><text fill="#000000" font-family="sans-serif" font-size="14" lengthAdjust="spacing" textLength="80" x="337" y="134.6018">closed: bool</text><line style="stroke:#181818;stroke-width:0.5;" x1="332" x2="504" y1="142.7038" y2="142.7038"/><text fill="#000000" font-family="sans-serif" font-size="14" lengthAdjust="spacing" textLength="52" x="337" y="161.6697">accept()</text><text fill="#000000" font-family="sans-serif" font-size="14" lengthAdjust="spacing" textLength="162" x="337" y="180.7376">votes_list() -&gt; Vec&lt;Addr&gt;</text></g><!--MD5=[85256bba920a9eadca77b04f7814d4b3]
reverse link admin to voting--><g id="link_admin_voting"><path codeLine="23" d="M252.48,117 C278.91,117 306.13,117 330.67,117 " fill="none" id="admin-backto-voting" style="stroke:#181818;stroke-width:1.0;"/><polygon fill="none" points="239.17,117,245.17,121,251.17,117,245.17,113,239.17,117" style="stroke:#181818;stroke-width:1.0;"/><text fill="#000000" font-family="sans-serif" font-size="13" lengthAdjust="spacing" textLength="55" x="257.5" y="109.897">manages</text></g></g></svg>