<?xml version="1.0" encoding="UTF-8" standalone="no"?><svg xmlns="http://www.w3.org/2000/svg" xmlns:xlink="http://www.w3.org/1999/xlink" contentStyleType="text/css" height="214px" preserveAspectRatio="none" style="width:512px;height:214px;background:#FFFFFF;" version="1.1" viewBox="0 0 512 214" width="512px" zoomAndPan="magnify"><defs/><g><!--MD5=[3e435d042affccde68262619adda5b81]
class admin--><g id="elem_admin"><rect codeLine="1" fill="#F1F1F1" height="200.5433" id="admin" rx="2.5" ry="2.5" style="stroke:#181818;stroke-width:0.5;" width="232" x="7" y="7"/><ellipse cx="97.25" cy="23" fill="#ADD1B2" rx="11" ry="11" style="stroke:#181818;stroke-width:1.0;"/><path d="M96.7188,29.9219 Q94.9688,29.9219 93.8281,29.1875 Q92.7031,28.4375 92.1406,27.0938 Q91.5938,25.7344 91.5938,23.9375 Q91.5938,21.9063 92.25,20.4531 Q92.9063,19 94.1875,18.2188 Q95.4688,17.4375 97.3438,17.4375 Q98.2344,17.4375 98.9063,17.625 Q99.5781,17.7969 100.2656,18.1406 L99.4531,20.1563 Q98.8281,19.8438 98.2813,19.7188 Q97.75,19.5938 97.2656,19.5938 Q96.0938,19.5938 95.3906,20.125 Q94.6875,20.6563 94.3906,21.6094 Q94.0938,22.5625 94.0938,23.8281 Q94.0938,25.8438 94.8125,26.8125 Q95.5313,27.7656 97.125,27.7656 Q97.7188,27.7656 98.3438,27.6094 Q98.9688,27.4531 99.7969,27.0781 L99.7969,29.2969 Q99.0625,29.6094 98.2656,29.7656 Q97.4844,29.9219 96.7188,29.9219 Z " fill="#000000"/><text fill="#000000" font-family="sans-serif" font-size="14" lengthAdjust="spacing" textLength="43" x="117.75" y="28.432">admin</text><line style="stroke:#181818;stroke-width:0.5;" x1="8" x2="238" y1="39" y2="39"/><text fill="#000000" font-family="sans-serif" font-size="14" lengthAdjust="spacing" textLength="220" x="13" y="57.9659">admins: Map&lt;Addr, Timestamp&gt;</text><text fill="#000000" font-family="sans-serif" font-size="14" lengthAdjust="spacing" textLength="177" x="13" y="77.0339">votings: Map&lt;Addr, Addr&gt;</text><line style="stroke:#181818;stroke-width:0.5;" x1="8" x2="238" y1="85.1358" y2="85.1358"/><text fill="#000000" font-family="sans-serif" font-size="14" lengthAdjust="spacing" textLength="220" x="13" y="104.1018">propose_admin(candidate: Addr)</text><text fill="#000000" font-family="sans-serif" font-size="14" lengthAdjust="spacing" textLength="191" x="13" y="123.1697">add_admin(candidate: Addr)</text><text fill="#000000" font-family="sans-serif" font-size="14" lengthAdjust="spacing" textLength="55" x="13" y="142.2376">donate()</text><text fill="#000000" font-family="sans-serif" font-size="14" lengthAdjust="spacing" textLength="4" x="13" y="161.3055"> </text><text fill="#000000" font-family="sans-serif" font-size="14" lengthAdjust="spacing" textLength="177" x="13" y="180.3734">admins_list() -&gt; Vec&lt;Addr&gt;</text><text fill="#000000" font-family="sans-serif" font-size="14" lengthAdjust="spacing" textLength="165" x="13" y="199.4414">join_time() -&gt; Timestamp</text></g><!--MD5=[99230566cc809b8442ccf0771efd63e4]
class voting--><g id="elem_voting"><rect codeLine="13" fill="#F1F1F1" height="143.3396" id="voting" rx="2.5" ry="2.5" style="stroke:#181818;stroke-width:0.5;" width="174" x="331" y="36"/><ellipse cx="392.75" cy="52" fill="#ADD1B2" rx="11" ry="11" style="stroke:#181818;stroke-width:1.0;"/><path d="M392.2188,58.9219 Q390.4688,58.9219 389.3281,58.1875 Q388.2031,57.4375 387.6406,56.0938 Q387.0938,54.7344 387.0938,52.9375 Q387.0938,50.9063 387.75,49.4531 Q388.4063,48 389.6875,47.2188 Q390.9688,46.4375 392.8438,46.4375 Q393.7344,46.4375 394.4063,46.625 Q395.0781,46.7969 395.7656,47.1406 L394.9531,49.1563 Q394.3281,48.8438 393.7813,48.7188 Q393.25,48.5938 392.7656,48.5938 Q391.5938,48.5938 390.8906,49.125 Q390.1875,49.6563 389.8906,50.6094 Q389.5938,51.5625 389.5938,52.8281 Q389.5938,54.8438 390.3125,55.8125 Q391.0313,56.7656 392.625,56.7656 Q393.2188,56.7656 393.8438,56.6094 Q394.4688,56.4531 395.2969,56.0781 L395.2969,58.2969 Q394.5625,58.6094 393.7656,58.7656 Q392.9844,58.9219 392.2188,58.9219 Z " fill="#000000"/><text fill="#000000" font-family="sans-serif" font-size="14" lengthAdjust="spacing" textLength="42" x="413.25" y="57.432">voting</text><line style="stroke:#181818;stroke-width:0.5;" x1="332" x2="504" y1="68" y2="68"/><text fill="#000000" font-family="sans-serif" font-size="14" lengthAdjust="spacing" textLength="115" x="337" y="86.9659">votes: Vec&lt;Addr&gt;</text><text fill="#000000" font-family="sans-serif" font-size="14" lengthAdjust="spacing" textLength="125" x="337" y="106.0339">votes_needed: u64</text><text fill="#000000" font-family="sans-serif" font-size="14" lengthAdjust="spacing" textLength="80" x="337" y="125.1018">closed: bool</text><line style="stroke:#181818;stroke-width:0.5;" x1="332" x2="504" y1="133.2038" y2="133.2038"/><text fill="#000000" font-family="sans-serif" font-size="14" lengthAdjust="spacing" textLength="52" x="337" y="152.1697">accept()</text><text fill="#000000" font-family="sans-serif" font-size="14" lengthAdjust="spacing" textLength="162" x="337" y="171.2376">votes_list() -&gt; Vec&lt;Addr&gt;</text></g><!--MD5=[85256bba920a9eadca77b04f7814d4b3]
reverse link admin to voting--><g id="link_admin_voting"><path codeLine="22" d="M252.48,107.5 C278.91,107.5 306.13,107.5 330.67,107.5 " fill="none" id="admin-backto-voting" style="stroke:#181818;stroke-width:1.0;"/><polygon fill="none" points="239.17,107.5,245.17,111.5,251.17,107.5,245.17,103.5,239.17,107.5" style="stroke:#181818;stroke-width:1.0;"/><text fill="#000000" font-family="sans-serif" font-size="13" lengthAdjust="spacing" textLength="55" x="257.5" y="100.397">manages</text></g></g></svg>