<?xml version="1.0" encoding="UTF-8" standalone="no"?><svg xmlns="http://www.w3.org/2000/svg" xmlns:xlink="http://www.w3.org/1999/xlink" contentStyleType="text/css" height="380px" preserveAspectRatio="none" style="width:566px;height:380px;background:#FFFFFF;" version="1.1" viewBox="0 0 566 380" width="566px" zoomAndPan="magnify"><defs/><g><!--MD5=[3e435d042affccde68262619adda5b81]
class admin--><g id="elem_admin"><rect codeLine="1" fill="#F1F1F1" height="238.6792" id="admin" rx="2.5" ry="2.5" style="stroke:#181818;stroke-width:0.5;" width="287" x="7" y="7"/><ellipse cx="124.75" cy="23" fill="#ADD1B2" rx="11" ry="11" style="stroke:#181818;stroke-width:1.0;"/><path d="M124.2188,29.9219 Q122.4688,29.9219 121.3281,29.1875 Q120.2031,28.4375 119.6406,27.0938 Q119.0938,25.7344 119.0938,23.9375 Q119.0938,21.9063 119.75,20.4531 Q120.4063,19 121.6875,18.2188 Q122.9688,17.4375 124.8438,17.4375 Q125.7344,17.4375 126.4063,17.625 Q127.0781,17.7969 127.7656,18.1406 L126.9531,20.1563 Q126.3281,19.8438 125.7813,19.7188 Q125.25,19.5938 124.7656,19.5938 Q123.5938,19.5938 122.8906,20.125 Q122.1875,20.6563 121.8906,21.6094 Q121.5938,22.5625 121.5938,23.8281 Q121.5938,25.8438 122.3125,26.8125 Q123.0313,27.7656 124.625,27.7656 Q125.2188,27.7656 125.8438,27.6094 Q126.4688,27.4531 127.2969,27.0781 L127.2969,29.2969 Q126.5625,29.6094 125.7656,29.7656 Q124.9844,29.9219 124.2188,29.9219 Z " fill="#000000"/><text fill="#000000" font-family="sans-serif" font-size="14" lengthAdjust="spacing" textLength="43" x="145.25" y="28.432">admin</text><line style="stroke:#181818;stroke-width:0.5;" x1="8" x2="293" y1="39" y2="39"/><text fill="#000000" font-family="sans-serif" font-size="14" lengthAdjust="spacing" textLength="220" x="13" y="57.9659">admins: Map&lt;Addr, Timestamp&gt;</text><text fill="#000000" font-family="sans-serif" font-size="14" lengthAdjust="spacing" textLength="177" x="13" y="77.0339">votings: Map&lt;Addr, Addr&gt;</text><line style="stroke:#181818;stroke-width:0.5;" x1="8" x2="293" y1="85.1358" y2="85.1358"/><text fill="#000000" font-family="sans-serif" font-size="14" lengthAdjust="spacing" textLength="220" x="13" y="104.1018">propose_admin(candidate: Addr)</text><text fill="#000000" font-family="sans-serif" font-size="14" lengthAdjust="spacing" textLength="83" x="13" y="123.1697">add_admin()</text><text fill="#000000" font-family="sans-serif" font-size="14" lengthAdjust="spacing" textLength="43" x="13" y="142.2376">leave()</text><text fill="#000000" font-family="sans-serif" font-size="14" lengthAdjust="spacing" textLength="55" x="13" y="161.3055">donate()</text><text fill="#000000" font-family="sans-serif" font-size="14" lengthAdjust="spacing" textLength="275" x="13" y="180.3734">execute(contract: Addr, message: Binary)</text><text fill="#000000" font-family="sans-serif" font-size="14" lengthAdjust="spacing" textLength="4" x="13" y="199.4414"> </text><text fill="#000000" font-family="sans-serif" font-size="14" lengthAdjust="spacing" textLength="177" x="13" y="218.5093">admins_list() -&gt; Vec&lt;Addr&gt;</text><text fill="#000000" font-family="sans-serif" font-size="14" lengthAdjust="spacing" textLength="165" x="13" y="237.5772">join_time() -&gt; Timestamp</text></g><!--MD5=[99230566cc809b8442ccf0771efd63e4]
class voting--><g id="elem_voting"><rect codeLine="15" fill="#F1F1F1" height="143.3396" id="voting" rx="2.5" ry="2.5" style="stroke:#181818;stroke-width:0.5;" width="174" x="385.5" y="55"/><ellipse cx="447.25" cy="71" fill="#ADD1B2" rx="11" ry="11" style="stroke:#181818;stroke-width:1.0;"/><path d="M446.7188,77.9219 Q444.9688,77.9219 443.8281,77.1875 Q442.7031,76.4375 442.1406,75.0938 Q441.5938,73.7344 441.5938,71.9375 Q441.5938,69.9063 442.25,68.4531 Q442.9063,67 444.1875,66.2188 Q445.4688,65.4375 447.3438,65.4375 Q448.2344,65.4375 448.9063,65.625 Q449.5781,65.7969 450.2656,66.1406 L449.4531,68.1563 Q448.8281,67.8438 448.2813,67.7188 Q447.75,67.5938 447.2656,67.5938 Q446.0938,67.5938 445.3906,68.125 Q444.6875,68.6563 444.3906,69.6094 Q444.0938,70.5625 444.0938,71.8281 Q444.0938,73.8438 444.8125,74.8125 Q445.5313,75.7656 447.125,75.7656 Q447.7188,75.7656 448.3438,75.6094 Q448.9688,75.4531 449.7969,75.0781 L449.7969,77.2969 Q449.0625,77.6094 448.2656,77.7656 Q447.4844,77.9219 446.7188,77.9219 Z " fill="#000000"/><text fill="#000000" font-family="sans-serif" font-size="14" lengthAdjust="spacing" textLength="42" x="467.75" y="76.432">voting</text><line style="stroke:#181818;stroke-width:0.5;" x1="386.5" x2="558.5" y1="87" y2="87"/><text fill="#000000" font-family="sans-serif" font-size="14" lengthAdjust="spacing" textLength="115" x="391.5" y="105.9659">votes: Vec&lt;Addr&gt;</text><text fill="#000000" font-family="sans-serif" font-size="14" lengthAdjust="spacing" textLength="125" x="391.5" y="125.0339">votes_needed: u64</text><text fill="#000000" font-family="sans-serif" font-size="14" lengthAdjust="spacing" textLength="80" x="391.5" y="144.1018">closed: bool</text><line style="stroke:#181818;stroke-width:0.5;" x1="386.5" x2="558.5" y1="152.2038" y2="152.2038"/><text fill="#000000" font-family="sans-serif" font-size="14" lengthAdjust="spacing" textLength="52" x="391.5" y="171.1697">accept()</text><text fill="#000000" font-family="sans-serif" font-size="14" lengthAdjust="spacing" textLength="162" x="391.5" y="190.2376">votes_list() -&gt; Vec&lt;Addr&gt;</text></g><!--MD5=[ca80c701bb18ff8c00a56e94de87022b]
class external--><g id="elem_external"><rect codeLine="24" fill="#F1F1F1" height="48" id="external" rx="2.5" ry="2.5" style="stroke:#181818;stroke-width:0.5;" width="87" x="107" y="325"/><ellipse cx="122" cy="341" fill="#ADD1B2" rx="11" ry="11" style="stroke:#181818;stroke-width:1.0;"/><path d="M121.4688,347.9219 Q119.7188,347.9219 118.5781,347.1875 Q117.4531,346.4375 116.8906,345.0938 Q116.3438,343.7344 116.3438,341.9375 Q116.3438,339.9063 117,338.4531 Q117.6563,337 118.9375,336.2188 Q120.2188,335.4375 122.0938,335.4375 Q122.9844,335.4375 123.6563,335.625 Q124.3281,335.7969 125.0156,336.1406 L124.2031,338.1563 Q123.5781,337.8438 123.0313,337.7188 Q122.5,337.5938 122.0156,337.5938 Q120.8438,337.5938 120.1406,338.125 Q119.4375,338.6563 119.1406,339.6094 Q118.8438,340.5625 118.8438,341.8281 Q118.8438,343.8438 119.5625,344.8125 Q120.2813,345.7656 121.875,345.7656 Q122.4688,345.7656 123.0938,345.6094 Q123.7188,345.4531 124.5469,345.0781 L124.5469,347.2969 Q123.8125,347.6094 123.0156,347.7656 Q122.2344,347.9219 121.4688,347.9219 Z " fill="#000000"/><text fill="#000000" font-family="sans-serif" font-size="14" lengthAdjust="spacing" textLength="55" x="136" y="346.432">external</text><line style="stroke:#181818;stroke-width:0.5;" x1="108" x2="193" y1="357" y2="357"/><line style="stroke:#181818;stroke-width:0.5;" x1="108" x2="193" y1="365" y2="365"/></g><!--MD5=[85256bba920a9eadca77b04f7814d4b3]
reverse link admin to voting--><g id="link_admin_voting"><path codeLine="26" d="M307.21,126.5 C334,126.5 360.95,126.5 385.09,126.5 " fill="none" id="admin-backto-voting" style="stroke:#181818;stroke-width:1.0;"/><polygon fill="none" points="294.08,126.5,300.08,130.5,306.08,126.5,300.08,122.5,294.08,126.5" style="stroke:#181818;stroke-width:1.0;"/><text fill="#000000" font-family="sans-serif" font-size="13" lengthAdjust="spacing" textLength="55" x="312.25" y="119.397">manages</text></g><!--MD5=[92bca2993d9d43375af1a9d11a6b1ce7]
link admin to external--><g id="link_admin_external"><path codeLine="27" d="M150.5,246.14 C150.5,276.11 150.5,305.25 150.5,324.63 " fill="none" id="admin-external" style="stroke:#181818;stroke-width:1.0;"/><text fill="#000000" font-family="sans-serif" font-size="13" lengthAdjust="spacing" textLength="69" x="151.5" y="290.897">forwards to</text></g></g></svg>