<?xml version="1.0" encoding="UTF-8" standalone="no"?><svg xmlns="http://www.w3.org/2000/svg" xmlns:xlink="http://www.w3.org/1999/xlink" contentStyleType="text/css" height="591px" preserveAspectRatio="none" style="width:689px;height:591px;background:#FFFFFF;" version="1.1" viewBox="0 0 689 591" width="689px" zoomAndPan="magnify"><defs/><g><rect fill="#FFFFFF" height="101.118" style="stroke:#181818;stroke-width:1.0;" width="10" x="612" y="210.5479"/><rect fill="#FFFFFF" height="139.8241" style="stroke:#181818;stroke-width:1.0;" width="10" x="612" y="350.3719"/><line style="stroke:#181818;stroke-width:0.5;stroke-dasharray:5.0,5.0;" x1="36" x2="36" y1="84.0679" y2="508.196"/><line style="stroke:#181818;stroke-width:0.5;stroke-dasharray:5.0,5.0;" x1="108" x2="108" y1="84.0679" y2="508.196"/><line style="stroke:#181818;stroke-width:0.5;stroke-dasharray:5.0,5.0;" x1="180" x2="180" y1="84.0679" y2="508.196"/><line style="stroke:#181818;stroke-width:0.5;stroke-dasharray:5.0,5.0;" x1="305.5" x2="305.5" y1="84.0679" y2="508.196"/><line style="stroke:#181818;stroke-width:0.5;stroke-dasharray:5.0,5.0;" x1="617" x2="617" y1="166.3079" y2="508.196"/><text fill="#000000" font-family="sans-serif" font-size="14" lengthAdjust="spacing" textLength="56" x="5" y="79.9659">Admin 1</text><ellipse cx="36" cy="13.5" fill="#E2E2F0" rx="8" ry="8" style="stroke:#181818;stroke-width:0.5;"/><path d="M36,21.5 L36,48.5 M23,29.5 L49,29.5 M36,48.5 L23,63.5 M36,48.5 L49,63.5 " fill="none" style="stroke:#181818;stroke-width:0.5;"/><text fill="#000000" font-family="sans-serif" font-size="14" lengthAdjust="spacing" textLength="56" x="5" y="522.1619">Admin 1</text><ellipse cx="36" cy="534.7639" fill="#E2E2F0" rx="8" ry="8" style="stroke:#181818;stroke-width:0.5;"/><path d="M36,542.7639 L36,569.7639 M23,550.7639 L49,550.7639 M36,569.7639 L23,584.7639 M36,569.7639 L49,584.7639 " fill="none" style="stroke:#181818;stroke-width:0.5;"/><text fill="#000000" font-family="sans-serif" font-size="14" lengthAdjust="spacing" textLength="56" x="77" y="79.9659">Admin 2</text><ellipse cx="108" cy="13.5" fill="#E2E2F0" rx="8" ry="8" style="stroke:#181818;stroke-width:0.5;"/><path d="M108,21.5 L108,48.5 M95,29.5 L121,29.5 M108,48.5 L95,63.5 M108,48.5 L121,63.5 " fill="none" style="stroke:#181818;stroke-width:0.5;"/><text fill="#000000" font-family="sans-serif" font-size="14" lengthAdjust="spacing" textLength="56" x="77" y="522.1619">Admin 2</text><ellipse cx="108" cy="534.7639" fill="#E2E2F0" rx="8" ry="8" style="stroke:#181818;stroke-width:0.5;"/><path d="M108,542.7639 L108,569.7639 M95,550.7639 L121,550.7639 M108,569.7639 L95,584.7639 M108,569.7639 L121,584.7639 " fill="none" style="stroke:#181818;stroke-width:0.5;"/><text fill="#000000" font-family="sans-serif" font-size="14" lengthAdjust="spacing" textLength="56" x="149" y="79.9659">Admin 3</text><ellipse cx="180" cy="13.5" fill="#E2E2F0" rx="8" ry="8" style="stroke:#181818;stroke-width:0.5;"/><path d="M180,21.5 L180,48.5 M167,29.5 L193,29.5 M180,48.5 L167,63.5 M180,48.5 L193,63.5 " fill="none" style="stroke:#181818;stroke-width:0.5;"/><text fill="#000000" font-family="sans-serif" font-size="14" lengthAdjust="spacing" textLength="56" x="149" y="522.1619">Admin 3</text><ellipse cx="180" cy="534.7639" fill="#E2E2F0" rx="8" ry="8" style="stroke:#181818;stroke-width:0.5;"/><path d="M180,542.7639 L180,569.7639 M167,550.7639 L193,550.7639 M180,569.7639 L167,584.7639 M180,569.7639 L193,584.7639 " fill="none" style="stroke:#181818;stroke-width:0.5;"/><text fill="#000000" font-family="sans-serif" font-size="14" lengthAdjust="spacing" textLength="105" x="250.5" y="79.9659">Admin Contract</text><ellipse cx="306" cy="49" fill="#E2E2F0" rx="12" ry="12" style="stroke:#181818;stroke-width:0.5;"/><line style="stroke:#181818;stroke-width:0.5;" x1="294" x2="318" y1="63" y2="63"/><text fill="#000000" font-family="sans-serif" font-size="14" lengthAdjust="spacing" textLength="105" x="250.5" y="522.1619">Admin Contract</text><ellipse cx="306" cy="542.2639" fill="#E2E2F0" rx="12" ry="12" style="stroke:#181818;stroke-width:0.5;"/><line style="stroke:#181818;stroke-width:0.5;" x1="294" x2="318" y1="556.2639" y2="556.2639"/><text fill="#000000" font-family="sans-serif" font-size="14" lengthAdjust="spacing" textLength="36" x="596" y="522.1619">Votes</text><ellipse cx="617" cy="542.2639" fill="#E2E2F0" rx="12" ry="12" style="stroke:#181818;stroke-width:0.5;"/><line style="stroke:#181818;stroke-width:0.5;" x1="605" x2="629" y1="556.2639" y2="556.2639"/><rect fill="#FFFFFF" height="101.118" style="stroke:#181818;stroke-width:1.0;" width="10" x="612" y="210.5479"/><rect fill="#FFFFFF" height="139.8241" style="stroke:#181818;stroke-width:1.0;" width="10" x="612" y="350.3719"/><polygon fill="#181818" points="294,113.7739,304,117.7739,294,121.7739,298,117.7739" style="stroke:#181818;stroke-width:1.0;"/><line style="stroke:#181818;stroke-width:1.0;" x1="36" x2="300" y1="117.7739" y2="117.7739"/><text fill="#000000" font-family="sans-serif" font-size="13" lengthAdjust="spacing" textLength="246" x="43" y="111.9649">exec propose_admin { addr: new_admin }</text><polygon fill="#181818" points="584,145.4799,594,149.4799,584,153.4799,588,149.4799" style="stroke:#181818;stroke-width:1.0;"/><line style="stroke:#181818;stroke-width:1.0;" x1="306" x2="590" y1="149.4799" y2="149.4799"/><text fill="#000000" font-family="sans-serif" font-size="13" lengthAdjust="spacing" textLength="266" x="313" y="143.6709">instantiate { addr: "new_admin", required: 3 }</text><text fill="#000000" font-family="sans-serif" font-size="14" lengthAdjust="spacing" textLength="36" x="596" y="172.7399">Votes</text><ellipse cx="617" cy="141.7739" fill="#E2E2F0" rx="12" ry="12" style="stroke:#181818;stroke-width:0.5;"/><line style="stroke:#181818;stroke-width:0.5;" x1="605" x2="629" y1="155.7739" y2="155.7739"/><polygon fill="#181818" points="600,206.5479,610,210.5479,600,214.5479,604,210.5479" style="stroke:#181818;stroke-width:1.0;"/><line style="stroke:#181818;stroke-width:1.0;" x1="108" x2="606" y1="210.5479" y2="210.5479"/><text fill="#000000" font-family="sans-serif" font-size="13" lengthAdjust="spacing" textLength="82" x="115" y="204.7389">exec accept {}</text><polygon fill="#181818" points="317,238.2539,307,242.2539,317,246.2539,313,242.2539" style="stroke:#181818;stroke-width:1.0;"/><line style="stroke:#181818;stroke-width:1.0;" x1="311" x2="611" y1="242.2539" y2="242.2539"/><text fill="#000000" font-family="sans-serif" font-size="13" lengthAdjust="spacing" textLength="211" x="323" y="236.4449">query join_time { admin: "admin2" }</text><polygon fill="#181818" points="600,269.9599,610,273.9599,600,277.9599,604,273.9599" style="stroke:#181818;stroke-width:1.0;"/><line style="stroke:#181818;stroke-width:1.0;" x1="306" x2="606" y1="273.9599" y2="273.9599"/><text fill="#000000" font-family="sans-serif" font-size="13" lengthAdjust="spacing" textLength="187" x="313" y="268.1509">resp join_time_resp { joined: ... }</text><line style="stroke:#181818;stroke-width:1.0;stroke-dasharray:2.0,2.0;" x1="622" x2="664" y1="310.6659" y2="310.6659"/><line style="stroke:#181818;stroke-width:1.0;stroke-dasharray:2.0,2.0;" x1="664" x2="664" y1="310.6659" y2="323.6659"/><line style="stroke:#181818;stroke-width:1.0;stroke-dasharray:2.0,2.0;" x1="617" x2="664" y1="323.6659" y2="323.6659"/><polygon fill="#181818" points="627,319.6659,617,323.6659,627,327.6659,623,323.6659" style="stroke:#181818;stroke-width:1.0;"/><text fill="#000000" font-family="sans-serif" font-size="13" lengthAdjust="spacing" textLength="53" x="629" y="304.8569">add vote</text><polygon fill="#181818" points="600,346.3719,610,350.3719,600,354.3719,604,350.3719" style="stroke:#181818;stroke-width:1.0;"/><line style="stroke:#181818;stroke-width:1.0;" x1="180" x2="606" y1="350.3719" y2="350.3719"/><text fill="#000000" font-family="sans-serif" font-size="13" lengthAdjust="spacing" textLength="82" x="187" y="344.5629">exec accept {}</text><polygon fill="#181818" points="317,378.0779,307,382.0779,317,386.0779,313,382.0779" style="stroke:#181818;stroke-width:1.0;"/><line style="stroke:#181818;stroke-width:1.0;" x1="311" x2="611" y1="382.0779" y2="382.0779"/><text fill="#000000" font-family="sans-serif" font-size="13" lengthAdjust="spacing" textLength="211" x="323" y="376.2689">query join_time { admin: "admin3" }</text><polygon fill="#181818" points="600,409.784,610,413.784,600,417.784,604,413.784" style="stroke:#181818;stroke-width:1.0;"/><line style="stroke:#181818;stroke-width:1.0;" x1="306" x2="606" y1="413.784" y2="413.784"/><text fill="#000000" font-family="sans-serif" font-size="13" lengthAdjust="spacing" textLength="187" x="313" y="407.975">resp join_time_resp { joined: ... }</text><line style="stroke:#181818;stroke-width:1.0;stroke-dasharray:2.0,2.0;" x1="622" x2="664" y1="445.49" y2="445.49"/><line style="stroke:#181818;stroke-width:1.0;stroke-dasharray:2.0,2.0;" x1="664" x2="664" y1="445.49" y2="458.49"/><line style="stroke:#181818;stroke-width:1.0;stroke-dasharray:2.0,2.0;" x1="623" x2="664" y1="458.49" y2="458.49"/><polygon fill="#181818" points="633,454.49,623,458.49,633,462.49,629,458.49" style="stroke:#181818;stroke-width:1.0;"/><text fill="#000000" font-family="sans-serif" font-size="13" lengthAdjust="spacing" textLength="53" x="629" y="439.681">add vote</text><polygon fill="#181818" points="317,486.196,307,490.196,317,494.196,313,490.196" style="stroke:#181818;stroke-width:1.0;"/><line style="stroke:#181818;stroke-width:1.0;" x1="311" x2="616" y1="490.196" y2="490.196"/><text fill="#000000" font-family="sans-serif" font-size="13" lengthAdjust="spacing" textLength="189" x="323" y="484.387">add_admin { addr: new_admin }</text></g></svg>